<?xml version="1.0" encoding="UTF-8"?>
<svg version="1.1" xmlns="http://www.w3.org/2000/svg" width="512" height="512">
<path d="M0 0 C2.33146489 -0.00571577 4.66292699 -0.01268464 6.99438477 -0.02079773 C13.2756284 -0.03861266 19.55673144 -0.03758263 25.83799267 -0.03185534 C31.7751047 -0.02835084 37.71219599 -0.03635121 43.64930347 -0.043216 C56.12940723 -0.05688821 68.60944801 -0.05154109 81.08955029 -0.04003078 C92.45469279 -0.03010771 103.81967226 -0.04303246 115.18478963 -0.06696498 C126.91275125 -0.09147151 138.64063731 -0.10093545 150.36862397 -0.09431225 C156.92963589 -0.0909618 163.49051328 -0.09322921 170.05150604 -0.11056328 C176.22743709 -0.12617049 182.40306001 -0.12192582 188.57897949 -0.10325813 C190.82733354 -0.0996098 193.07571113 -0.10256888 195.32404327 -0.11314392 C231.56000185 -0.27038223 265.68409904 9.52505175 294.27441406 32.40405273 C294.86303223 32.87456055 295.45165039 33.34506836 296.05810547 33.82983398 C319.84169957 53.07505879 337.48538242 78.92644958 346.52441406 108.21655273 C346.87560303 109.33344482 346.87560303 109.33344482 347.23388672 110.47290039 C352.04405241 126.89642669 352.71648374 143.13839626 352.6784668 160.12963867 C352.68418256 162.46110356 352.69115144 164.79256566 352.69926453 167.12402344 C352.71707945 173.40526707 352.71604943 179.68637012 352.71032214 185.96763134 C352.70681764 191.90474337 352.71481801 197.84183466 352.72168279 203.77894214 C352.73535501 216.25904591 352.73000789 228.73908668 352.71849758 241.21918896 C352.7085745 252.58433146 352.72149926 263.94931093 352.74543177 275.3144283 C352.76993831 287.04238992 352.77940224 298.77027598 352.77277905 310.49826264 C352.7694286 317.05927456 352.771696 323.62015195 352.78903008 330.18114471 C352.80463728 336.35707576 352.80039261 342.53269868 352.78172493 348.70861816 C352.7780766 350.95697221 352.78103568 353.20534981 352.79161072 355.45368195 C352.96488016 395.38405606 340.77889896 432.77238885 313.22753906 462.29858398 C311.63380682 464.01662734 310.15982481 465.75270609 308.71191406 467.59155273 C305.52391849 471.27000917 302.0311953 474.31812529 298.27441406 477.40405273 C297.33597656 478.18006836 296.39753906 478.95608398 295.43066406 479.75561523 C265.60069139 503.85340605 229.82878385 513.07192557 192.09472656 512.92163086 C189.76267056 512.92706789 187.430618 512.9341993 185.09857178 512.94287109 C178.83404672 512.96091946 172.56978871 512.95411415 166.3052597 512.94135475 C160.37834856 512.93217114 154.45146853 512.93922898 148.5245564 512.94506353 C136.0711164 512.95640839 123.6177951 512.94345219 111.16437459 512.92186207 C100.53107322 512.90399664 89.89794666 512.90710247 79.26464844 512.92553711 C66.84891076 512.94705253 54.43327653 512.95531033 42.01752281 512.94308805 C35.46999296 512.93689593 28.92258288 512.93589822 22.37506104 512.94923401 C16.21547897 512.96090646 10.05622251 512.95256147 3.89667511 512.92965698 C1.65477282 512.92443014 -0.58715755 512.92577819 -2.82904816 512.93470764 C-39.04368314 513.06549889 -73.15225975 503.26945864 -101.72558594 480.40405273 C-102.3142041 479.93354492 -102.90282227 479.46303711 -103.50927734 478.97827148 C-134.1058311 454.22013138 -154.71221044 417.92100162 -159.51277304 378.68369365 C-159.89310075 374.6096426 -159.86997213 370.54070571 -159.86602783 366.45181274 C-159.86899895 365.47762496 -159.87197008 364.50343718 -159.87503123 363.49972856 C-159.88367172 360.24989159 -159.88522255 357.00009166 -159.88671875 353.75024414 C-159.89135034 351.41376671 -159.89637546 349.07729002 -159.90176392 346.74081421 C-159.91485993 340.40143883 -159.9213278 334.06207403 -159.92577457 327.72268724 C-159.92871075 323.75587225 -159.93281665 319.78906011 -159.93727875 315.82224655 C-159.94946731 304.81592525 -159.95976621 293.80960587 -159.96315384 282.80327797 C-159.96337341 282.09986035 -159.96359297 281.39644274 -159.96381919 280.67170944 C-159.96403747 279.96670499 -159.96425575 279.26170054 -159.96448064 278.53533232 C-159.96492409 277.10696959 -159.96537065 275.67860687 -159.96582031 274.25024414 C-159.96604174 273.5417422 -159.96626317 272.83324025 -159.96649131 272.10326855 C-159.97043235 260.6442899 -159.98786696 249.1853751 -160.01117983 237.72642107 C-160.03498122 225.93100894 -160.04735973 214.13562871 -160.04852176 202.3401922 C-160.0494338 195.72999441 -160.05539133 189.11987005 -160.07334137 182.50969315 C-160.089921 176.28307805 -160.09192984 170.0566198 -160.08320236 163.82999039 C-160.08243717 161.55738401 -160.08670546 159.28476885 -160.09666061 157.01218414 C-160.16467306 140.50446113 -159.09700461 124.6020034 -154.22558594 108.71655273 C-153.85373169 107.50080566 -153.85373169 107.50080566 -153.47436523 106.26049805 C-146.93030727 86.00718672 -136.40283805 67.05586195 -121.76464844 51.56420898 C-119.86569267 49.55247999 -118.11136913 47.47368594 -116.35058594 45.34155273 C-112.01924649 40.38147046 -106.92318815 36.41685553 -101.72558594 32.40405273 C-100.40880859 31.38118164 -100.40880859 31.38118164 -99.06542969 30.33764648 C-84.87316435 19.65686948 -68.87894102 11.3897769 -51.91308594 6.15405273 C-51.16849121 5.91992676 -50.42389648 5.68580078 -49.65673828 5.44458008 C-33.23321199 0.63441439 -16.99124241 -0.03801695 0 0 Z " fill="#EE8E70" transform="translate(159.7255859375,-0.404052734375)"/>
<path d="M0 0 C1.08063721 0.54213135 1.08063721 0.54213135 2.18310547 1.09521484 C11.33039967 5.77758573 19.28947652 11.15880025 27 18 C27.72703125 18.60714844 28.4540625 19.21429688 29.203125 19.83984375 C52.32575879 39.29992295 67.23321405 70.30302924 71 100 C71.28009126 104.19244041 71.33442282 108.3615799 71.3125 112.5625 C71.30758545 113.69220215 71.3026709 114.8219043 71.29760742 115.98583984 C70.80299031 151.80626467 56.61337982 183.06065649 31 208 C30.50371094 208.52980469 30.00742187 209.05960938 29.49609375 209.60546875 C15.90966172 223.88540776 -4.97326637 234.36849247 -24 239 C-24.65613281 239.16773926 -25.31226563 239.33547852 -25.98828125 239.50830078 C-54.91969943 246.74748882 -86.01801172 244.13579463 -112.72387695 230.59130859 C-120.9036068 226.61548844 -127.82811548 227.52536586 -136.25 230.3125 C-137.73091561 230.77358914 -139.21269987 231.23189706 -140.6953125 231.6875 C-141.78247559 232.02394531 -141.78247559 232.02394531 -142.89160156 232.3671875 C-160.0813123 237.52648929 -160.0813123 237.52648929 -168.625 234.875 C-172.98938649 232.45034084 -175.83178749 229.78573751 -177.8125 225.0625 C-178.33676191 219.29561898 -177.79212933 214.38920198 -176.25 208.81640625 C-175.88540472 207.46289384 -175.52082177 206.10937812 -175.15625 204.75585938 C-174.57954035 202.65768572 -173.99944031 200.5604817 -173.41796875 198.46362305 C-172.85363763 196.41672304 -172.30151123 194.36679125 -171.75 192.31640625 C-171.24726563 190.49798218 -171.24726563 190.49798218 -170.734375 188.64282227 C-169.63656947 183.19722508 -169.10189064 177.89116639 -171.57421875 172.73046875 C-171.9098584 171.99634766 -172.24549805 171.26222656 -172.59130859 170.50585938 C-172.95305176 169.74080078 -173.31479492 168.97574219 -173.6875 168.1875 C-176.64688505 161.56455071 -179.07101128 155.02967727 -180.875 148 C-181.06537842 147.26031982 -181.25575684 146.52063965 -181.4519043 145.75854492 C-182.00454945 143.51225341 -182.51192726 141.2611828 -183 139 C-183.18546387 138.15751709 -183.37092773 137.31503418 -183.56201172 136.44702148 C-187.26237997 118.18780027 -185.86025034 98.88847767 -181 81 C-180.82871582 80.34177246 -180.65743164 79.68354492 -180.48095703 79.00537109 C-175.0603301 58.74441106 -163.26808553 41.08067332 -149 26 C-147.86111328 24.76443359 -147.86111328 24.76443359 -146.69921875 23.50390625 C-109.48217321 -15.54049014 -47.53307417 -23.88945823 0 0 Z " fill="#FEFEFE" transform="translate(313,141)"/>
</svg>
